<svg xmlns="http://www.w3.org/2000/svg" width="64" height="64" viewBox="0 0 64 64">
  <g id="naked_logo_icon_64_black" transform="translate(-7976 -7421)">
    <rect id="Rectangle_36806" data-name="Rectangle 36806" width="64" height="64" transform="translate(7976 7421)" fill="#111"/>
    <g id="Group_47684" data-name="Group 47684" transform="translate(7991.4 7439)">
      <path id="Path_25735" data-name="Path 25735" d="M26.134,0A1.729,1.729,0,0,0,24.4,1.73V22.107L11.191,8.894V1.73a1.73,1.73,0,1,0-3.461,0v3.7L2.935.639A1.72,1.72,0,1,0,.5,3.071L7.73,10.3V26.27a1.73,1.73,0,1,0,3.461,0V13.758L24.785,27.353a1.724,1.724,0,0,0,1.972.53l.037-.013c.03-.012.059-.027.088-.041s.046-.021.069-.033.039-.023.059-.035.059-.034.088-.054c.013-.008.025-.018.037-.027a1.732,1.732,0,0,0,.223-.186c.035-.035.066-.071.1-.108l.014-.015c.025-.03.047-.062.07-.093.011-.015.022-.028.032-.043s.034-.055.05-.083.026-.042.038-.064.02-.042.031-.063.03-.062.043-.094c0-.01.007-.021.011-.031a1.721,1.721,0,0,0,.12-.629V1.73A1.729,1.729,0,0,0,26.134,0" transform="translate(0)" fill="#fff"/>
    </g>
  </g>
</svg>
